<?xml version="1.0" encoding="iso-8859-1"?>
<!-- Generator: Adobe Illustrator 19.0.0, SVG Export Plug-In . SVG Version: 6.00 Build 0)  -->
<svg version="1.1" id="&#x30EC;&#x30A4;&#x30E4;&#x30FC;_1"
	 xmlns="http://www.w3.org/2000/svg" xmlns:xlink="http://www.w3.org/1999/xlink" x="0px" y="0px" viewBox="0 0 333.944 415.573"
	 style="enable-background:new 0 0 333.944 415.573;" xml:space="preserve">
<g id="XMLID_12_">
	<g id="XMLID_27_" style="enable-background:new    ;">
		<path id="XMLID_28_" style="fill:#DBB600;" d="M143.625,383.341c-1.542,12.121-5.886,19.059-15.766,25.154l-1.331-1.682
			c5.185-5.186,8.128-10.3,9.88-17.097c1.611-6.797,2.032-13.243,2.032-34.824v-8.268h42.251v54.653
			c0.07,4.134-1.892,5.955-6.376,5.955h-12.962v-2.942h9.949c2.242,0,3.224-0.981,3.224-3.293v-17.657H143.625z M174.526,365.964
			h-30.06v2.522c-0.07,4.694-0.14,7.007-0.561,12.052h30.62V365.964z M174.526,349.428h-29.919v5.465l-0.07,8.269h29.989V349.428z"
			/>
		<path id="XMLID_33_" style="fill:#DBB600;" d="M239.342,398.825c0,1.542,1.121,2.103,4.484,2.173h9.67
			c2.732,0,3.924-1.052,4.134-3.924l0.351-5.186l3.083,0.21l-0.631,7.638c-0.351,4.835-2.452,6.727-7.287,6.727h-10.58
			c-6.727-0.069-8.969-1.401-9.039-5.605v-14.784h-10.02c-1.191,13.663-7.497,18.849-26.275,21.721l-0.631-2.102
			c14.434-3.854,19.829-8.969,20.53-19.409l0.069-0.21H205.57v-39.098h46.525v39.098h-12.753V398.825z M246.21,358.466v-8.688
			h-34.754v8.688H246.21z M246.21,370.168v-8.899h-34.754v8.899H246.21z M246.21,383.27v-10.3h-34.754v10.3H246.21z"/>
		<path id="XMLID_41_" style="fill:#DBB600;" d="M324.06,375.282c-2.032-3.293-3.083-4.834-5.045-7.566
			c-11.211,1.892-22.282,3.082-46.525,4.834c-0.561,1.262-1.052,1.752-1.752,1.752c-0.701,0-1.051-0.42-1.472-1.682l-1.752-5.815
			c3.153-0.07,5.396-0.07,6.587-0.07l2.873-0.07l2.942-0.069l0.28-0.561c3.714-5.816,7.287-12.963,11.071-22.002l6.937,2.102
			c0.7,0.211,1.121,0.701,1.121,1.262c0,0.911-0.701,1.472-2.452,1.822c-5.816,8.758-9.109,12.962-13.523,17.307l1.682-0.07
			c14.574-0.351,26.205-0.771,32.161-1.121c-3.434-4.274-6.096-7.217-10.58-11.491l2.032-1.611
			c9.108,5.535,15.555,11.07,21.791,18.638L324.06,375.282z M281.528,407.724h-6.166v-28.868h47.156v28.518h-6.166v-3.223h-34.824
			V407.724z M316.352,401.208v-19.409h-34.824v19.409H316.352z"/>
	</g>
	<polygon id="XMLID_38_" style="fill:#F7DB00;" points="332.87,0 332.87,332.87 0,332.87 	"/>
	<polygon id="XMLID_37_" style="fill:#DBB600;" points="332.87,199.808 332.87,332.87 199.808,332.87 	"/>
	<path id="XMLID_34_" style="fill:#FFFFFF;" d="M294.053,295.232c3.173-2.791,6.47-4.145,10.215-4.417
		c8.676-0.628,16.63,6.297,17.171,14.997c0.397,6.381-1.777,11.644-7.111,15.32c-8.551,5.893-21.519,2.543-24.904-9.008
		c-1.149-3.921-1.065-7.945-0.895-11.945c0.164-3.86,0.379-7.75,1.03-11.548c0.798-4.653,2.744-8.868,6.612-11.877
		c4.237-3.296,8.989-4.176,14.051-2.389c5.007,1.768,8.334,5.25,9.689,10.473c0.161,0.62,0.517,1.306-0.493,1.602
		c-0.956,0.28-1.334-0.113-1.576-1.024c-1.147-4.321-3.871-7.261-7.987-8.967c-3.768-1.562-8.179-0.41-11.048,2.865
		c-2.569,2.932-3.689,6.457-4.247,10.202C294.301,291.267,294.24,293.047,294.053,295.232z M315.406,307.204
		c-0.179-4.637-1.391-8.986-5.219-12.246c-1.648-1.404-3.557-2.287-5.703-2.103c-3.389,0.289-5.861,2.171-7.665,5.004
		c-3.751,5.892-3.459,15.016,1.046,20.543c3.221,3.951,8.756,4.579,12.549,1.183C314.053,316.327,315.262,312.059,315.406,307.204z"
		/>
	<path id="XMLID_30_" style="fill:#FFFFFF;" d="M280.469,272.876c0,1.525,0,3.05,0,4.575c0,9.85-0.015,19.701,0.009,29.551
		c0.009,3.593-0.119,2.996,3.075,3.047c0.568,0.009,1.14,0.023,1.703-0.037c0.866-0.093,1.212,0.277,1.213,1.122
		c0.001,0.825-0.438,1.059-1.172,1.046c-1.136-0.021-2.274,0.025-3.409-0.022c-1.033-0.043-1.452,0.385-1.428,1.422
		c0.049,2.083,0.012,4.167,0.048,6.25c0.031,1.838,0.053,1.835-1.728,1.831c-1.489-0.004-2.978-0.001-4.463-0.001
		c0-3.315,0-6.314,0-9.594c-7.706,0-15.321,0-22.936,0c-0.053-0.136-0.106-0.273-0.159-0.409
		c9.571-12.971,19.141-25.941,28.712-38.912C280.113,272.789,280.291,272.832,280.469,272.876z M255.122,309.938
		c0.839,0.054,1.351,0.114,1.864,0.115c5.161,0.005,10.323,0.004,15.484-0.002c1.939-0.002,1.945-0.009,1.946-2.011
		c0.002-7.245,0-14.49-0.001-21.734c0-0.643,0-1.286,0-1.929c-0.104-0.038-0.208-0.076-0.312-0.113
		C267.835,292.741,261.567,301.22,255.122,309.938z"/>
</g>
</svg>
